<?xml version="1.0" standalone="no"?>
<!DOCTYPE svg PUBLIC "-//W3C//DTD SVG 20010904//EN"
 "http://www.w3.org/TR/2001/REC-SVG-20010904/DTD/svg10.dtd">
<svg version="1.0" xmlns="http://www.w3.org/2000/svg"
 width="200.000000pt" height="200.000000pt" viewBox="0 0 200.000000 200.000000"
 preserveAspectRatio="xMidYMid meet">

<g transform="translate(0.000000,200.000000) scale(0.100000,-0.100000)"
fill="#000000" stroke="none">
<path d="M325 1353 c-134 -70 -149 -218 -27 -270 l33 -14 -27 -49 c-37 -69
-45 -74 -91 -61 -65 18 -111 14 -138 -14 -31 -30 -31 -47 -1 -81 20 -24 33
-28 88 -32 52 -3 73 0 106 17 l42 21 63 -21 c89 -31 122 -23 186 46 27 30 51
55 53 55 2 0 2 -16 0 -35 -2 -19 1 -42 8 -50 19 -23 71 -18 112 10 45 30 46
31 50 3 7 -51 90 -25 159 48 l24 26 5 -43 c4 -36 10 -45 32 -53 23 -8 36 -4
79 23 l51 32 -28 -48 c-15 -26 -45 -75 -66 -108 -39 -59 -55 -101 -45 -111 10
-10 65 7 92 28 14 11 44 47 67 80 22 34 84 109 136 167 93 104 132 138 101 90
-9 -13 -24 -45 -34 -72 -17 -46 -17 -48 0 -67 34 -38 67 -26 198 70 19 13 19
13 12 -19 -15 -67 51 -92 120 -46 20 15 38 25 39 23 13 -31 28 -44 52 -46 23
-2 44 9 102 58 40 34 70 66 67 71 -4 5 -23 -4 -43 -21 -20 -16 -40 -30 -44
-30 -19 0 -5 48 33 120 45 84 47 120 9 140 -17 9 -23 6 -38 -20 -10 -16 -21
-27 -25 -24 -12 13 -99 5 -124 -12 -15 -9 -68 -59 -119 -110 -58 -60 -99 -94
-113 -94 -30 0 -27 14 21 107 40 77 45 83 74 83 17 0 37 6 43 14 10 12 7 15
-16 18 -29 3 -30 7 -19 45 5 15 -1 30 -18 49 l-24 29 -33 -53 c-22 -36 -44
-58 -67 -68 -28 -11 -32 -17 -23 -28 10 -11 3 -25 -35 -68 -56 -64 -165 -178
-169 -178 -4 0 52 125 89 198 31 62 32 81 5 110 -24 27 -32 23 -49 -20 -18
-43 -17 -43 -35 -24 -22 21 -73 20 -111 -3 -17 -10 -57 -49 -90 -87 -103 -118
-114 -128 -127 -115 -8 8 -3 28 22 79 63 126 63 127 40 156 -26 33 -35 33 -52
-1 -13 -25 -19 -27 -65 -24 -66 3 -109 -18 -158 -77 -69 -84 -157 -159 -198
-166 -35 -7 -126 1 -126 11 0 2 11 19 24 36 14 18 33 51 44 74 15 34 30 48 78
73 77 41 121 83 150 145 29 60 30 77 6 98 -25 22 -74 21 -120 -2 -52 -27 -136
-119 -169 -185 -30 -61 -41 -66 -90 -36 -54 32 -57 110 -8 169 32 37 85 55
136 47 45 -7 54 9 13 24 -35 14 -64 12 -99 -7z m313 -36 c7 -35 -9 -69 -55
-118 -44 -47 -110 -96 -118 -87 -11 11 67 176 95 201 35 31 73 33 78 4z m570
-235 c4 -26 -17 -67 -57 -109 -33 -37 -71 -44 -71 -15 0 23 73 138 92 145 21
9 33 2 36 -21z m-358 -2 c0 -44 -76 -150 -106 -150 -36 0 -19 52 43 128 37 45
63 54 63 22z m960 -3 c0 -29 -54 -113 -87 -134 -18 -12 -27 -13 -36 -4 -14 14
10 62 60 121 39 45 63 52 63 17z m-1608 -148 c25 -13 23 -22 -11 -42 -50 -29
-101 -18 -101 23 0 39 56 49 112 19z"/>
</g>
</svg>
